<svg width="29" height="18" viewBox="0 0 29 18" fill="none" xmlns="http://www.w3.org/2000/svg">
<path d="M21.1028 17.5481L28.5861 9.97637L28.6104 9.95176L28.6235 9.9404L28.6348 9.92715L28.6479 9.912L28.6572 9.90065L28.6722 9.88361L28.6871 9.86468L28.7152 9.82493L28.7358 9.79843L28.7545 9.77193L28.7732 9.74353V9.73217L28.79 9.71514V9.70189V9.68674L28.8106 9.66971V9.65835L28.8349 9.63563C28.98 9.36028 29.0314 9.04429 28.9814 8.73641C28.9313 8.42853 28.7826 8.14586 28.5581 7.93199L21.1028 0.39807C20.8381 0.139582 20.4836 -0.00334941 20.1157 5.96086e-05C19.7478 0.00346862 19.396 0.152946 19.1359 0.416296C18.8759 0.679647 18.7285 1.0358 18.7255 1.40805C18.7225 1.78029 18.8641 2.13885 19.1198 2.40648L24.2065 7.5534H1.40311C1.03099 7.5534 0.674099 7.70297 0.410965 7.96922C0.147829 8.23547 0 8.59657 0 8.9731C0 9.34963 0.147829 9.71074 0.410965 9.97699C0.674099 10.2432 1.03099 10.3928 1.40311 10.3928H24.2065L19.1198 15.5416C18.9819 15.6716 18.8713 15.8283 18.7947 16.0025C18.718 16.1766 18.6767 16.3646 18.6734 16.5552C18.6701 16.7459 18.7047 16.9352 18.7753 17.112C18.8459 17.2888 18.9509 17.4494 19.0842 17.5842C19.2174 17.719 19.3761 17.8253 19.5508 17.8967C19.7255 17.9681 19.9127 18.0031 20.1011 17.9998C20.2895 17.9964 20.4753 17.9547 20.6474 17.8771C20.8195 17.7995 20.9744 17.6876 21.1028 17.5481Z" fill="white"/>
</svg>
