<svg width="12" height="12" viewBox="0 0 12 12" fill="none" xmlns="http://www.w3.org/2000/svg">
<path d="M1.95 1.94995H10.05C10.1693 1.94995 10.2838 1.99736 10.3682 2.08175C10.4526 2.16614 10.5 2.2806 10.5 2.39995V9.59995C10.5 9.7193 10.4526 9.83376 10.3682 9.91815C10.2838 10.0025 10.1693 10.05 10.05 10.05H1.95C1.83065 10.05 1.71619 10.0025 1.6318 9.91815C1.54741 9.83376 1.5 9.7193 1.5 9.59995V2.39995C1.5 2.2806 1.54741 2.16614 1.6318 2.08175C1.71619 1.99736 1.83065 1.94995 1.95 1.94995ZM9.6 5.54995H2.4V9.14995H9.6V5.54995ZM9.6 4.64995V2.84995H2.4V4.64995H9.6ZM6.9 7.34995H8.7V8.24995H6.9V7.34995Z" fill="#335CFF"/>
<path d="M1.95 1.94995H10.05C10.1693 1.94995 10.2838 1.99736 10.3682 2.08175C10.4526 2.16614 10.5 2.2806 10.5 2.39995V9.59995C10.5 9.7193 10.4526 9.83376 10.3682 9.91815C10.2838 10.0025 10.1693 10.05 10.05 10.05H1.95C1.83065 10.05 1.71619 10.0025 1.6318 9.91815C1.54741 9.83376 1.5 9.7193 1.5 9.59995V2.39995C1.5 2.2806 1.54741 2.16614 1.6318 2.08175C1.71619 1.99736 1.83065 1.94995 1.95 1.94995ZM9.6 5.54995H2.4V9.14995H9.6V5.54995ZM9.6 4.64995V2.84995H2.4V4.64995H9.6ZM6.9 7.34995H8.7V8.24995H6.9V7.34995Z" fill="#335CFF"/>
</svg>
