<svg width="42" height="42" viewBox="0 0 42 42" fill="none" xmlns="http://www.w3.org/2000/svg">
<path d="M21 39.375C31.1482 39.375 39.375 31.1482 39.375 21C39.375 10.8518 31.1482 2.625 21 2.625C10.8518 2.625 2.625 10.8518 2.625 21C2.625 31.1482 10.8518 39.375 21 39.375Z" fill="#0052FF"/>
<path d="M21.1553 15.6106C23.3187 15.6106 25.0349 16.9449 25.6866 18.9292H30.0449C29.2554 14.6868 25.7551 11.8125 21.1901 11.8125C16.006 11.8125 11.957 15.7477 11.957 21.0176C11.957 26.2875 15.9048 30.1875 21.1901 30.1875C25.6529 30.1875 29.2227 27.3132 30.013 23.0356H25.6862C25.0682 25.0202 23.3535 26.3894 21.1887 26.3894C18.2017 26.3894 16.1083 24.0965 16.1083 21.0176C16.1097 17.9035 18.1694 15.6106 21.1553 15.6106Z" fill="white"/>
</svg>
