<svg width="44" height="44" viewBox="0 0 44 44" fill="none" xmlns="http://www.w3.org/2000/svg">
<g filter="url(#filter0_d_223_3832)">
<path d="M2 21C2 9.95431 10.9543 1 22 1C33.0457 1 42 9.95431 42 21C42 32.0457 33.0457 41 22 41C10.9543 41 2 32.0457 2 21Z" fill="white"/>
<path d="M22 1.5C32.7696 1.5 41.5 10.2304 41.5 21C41.5 31.7696 32.7696 40.5 22 40.5C11.2304 40.5 2.5 31.7696 2.5 21C2.5 10.2304 11.2304 1.5 22 1.5Z" stroke="#EBEBEB"/>
<path d="M28 28.5H16C15.8011 28.5 15.6103 28.421 15.4697 28.2803C15.329 28.1397 15.25 27.9489 15.25 27.75V14.25C15.25 14.0511 15.329 13.8603 15.4697 13.7197C15.6103 13.579 15.8011 13.5 16 13.5H28C28.1989 13.5 28.3897 13.579 28.5303 13.7197C28.671 13.8603 28.75 14.0511 28.75 14.25V27.75C28.75 27.9489 28.671 28.1397 28.5303 28.2803C28.3897 28.421 28.1989 28.5 28 28.5ZM27.25 27V15H16.75V27H27.25ZM19 17.25H25V18.75H19V17.25ZM19 20.25H25V21.75H19V20.25ZM19 23.25H22.75V24.75H19V23.25Z" fill="#5C5C5C"/>
</g>
<defs>
<filter id="filter0_d_223_3832" x="0" y="0" width="44" height="44" filterUnits="userSpaceOnUse" color-interpolation-filters="sRGB">
<feFlood flood-opacity="0" result="BackgroundImageFix"/>
<feColorMatrix in="SourceAlpha" type="matrix" values="0 0 0 0 0 0 0 0 0 0 0 0 0 0 0 0 0 0 127 0" result="hardAlpha"/>
<feOffset dy="1"/>
<feGaussianBlur stdDeviation="1"/>
<feComposite in2="hardAlpha" operator="out"/>
<feColorMatrix type="matrix" values="0 0 0 0 0.0392157 0 0 0 0 0.0509804 0 0 0 0 0.0784314 0 0 0 0.03 0"/>
<feBlend mode="normal" in2="BackgroundImageFix" result="effect1_dropShadow_223_3832"/>
<feBlend mode="normal" in="SourceGraphic" in2="effect1_dropShadow_223_3832" result="shape"/>
</filter>
</defs>
</svg>
