<svg width="200" height="6" viewBox="0 0 200 6" fill="none" xmlns="http://www.w3.org/2000/svg">
<path d="M0 3C0 1.34315 1.34315 0 3 0H197C198.657 0 200 1.34315 200 3C200 4.65685 198.657 6 197 6H3C1.34314 6 0 4.65685 0 3Z" fill="#EBEBEB"/>
<path d="M0 3C0 4.65685 1.34315 6 3 6L117 6C118.657 6 120 4.65685 120 3C120 1.34315 118.657 0 117 0L3 0C1.34314 0 0 1.34315 0 3Z" fill="#171717"/>
<path d="M0 3C0 4.65685 1.34315 6 3 6L117 6C118.657 6 120 4.65685 120 3C120 1.34315 118.657 0 117 0L3 0C1.34314 0 0 1.34315 0 3Z" fill="#171717" fill-opacity="0.2"/>
</svg>
