<svg width="32" height="32" viewBox="0 0 32 32" fill="none" xmlns="http://www.w3.org/2000/svg">
<g filter="url(#filter0_d_223_3508)">
<path d="M2 15C2 7.26801 8.26801 1 16 1C23.732 1 30 7.26801 30 15C30 22.732 23.732 29 16 29C8.26801 29 2 22.732 2 15Z" fill="white"/>
<path d="M16 1.5C23.4558 1.5 29.5 7.54416 29.5 15C29.5 22.4558 23.4558 28.5 16 28.5C8.54416 28.5 2.5 22.4558 2.5 15C2.5 7.54416 8.54416 1.5 16 1.5Z" stroke="#EBEBEB"/>
<path d="M16 21C12.6862 21 10 18.3138 10 15C10 11.6862 12.6862 9 16 9C19.3138 9 22 11.6862 22 15C22 18.3138 19.3138 21 16 21ZM16 19.8C17.273 19.8 18.4939 19.2943 19.3941 18.3941C20.2943 17.4939 20.8 16.273 20.8 15C20.8 13.727 20.2943 12.5061 19.3941 11.6059C18.4939 10.7057 17.273 10.2 16 10.2C14.727 10.2 13.5061 10.7057 12.6059 11.6059C11.7057 12.5061 11.2 13.727 11.2 15C11.2 16.273 11.7057 17.4939 12.6059 18.3941C13.5061 19.2943 14.727 19.8 16 19.8ZM16.6 15H19V16.2H15.4V12H16.6V15Z" fill="#7B7B7B"/>
</g>
<defs>
<filter id="filter0_d_223_3508" x="0" y="0" width="32" height="32" filterUnits="userSpaceOnUse" color-interpolation-filters="sRGB">
<feFlood flood-opacity="0" result="BackgroundImageFix"/>
<feColorMatrix in="SourceAlpha" type="matrix" values="0 0 0 0 0 0 0 0 0 0 0 0 0 0 0 0 0 0 127 0" result="hardAlpha"/>
<feOffset dy="1"/>
<feGaussianBlur stdDeviation="1"/>
<feComposite in2="hardAlpha" operator="out"/>
<feColorMatrix type="matrix" values="0 0 0 0 0.0392157 0 0 0 0 0.0509804 0 0 0 0 0.0784314 0 0 0 0.03 0"/>
<feBlend mode="normal" in2="BackgroundImageFix" result="effect1_dropShadow_223_3508"/>
<feBlend mode="normal" in="SourceGraphic" in2="effect1_dropShadow_223_3508" result="shape"/>
</filter>
</defs>
</svg>
