<svg width="14" height="14" viewBox="0 0 14 14" fill="none" xmlns="http://www.w3.org/2000/svg">
<path d="M5.75431 0.814977C4.87834 0.531408 3.92607 0.925846 3.50716 1.74578L3.00355 2.73151C2.94371 2.84864 2.84846 2.9439 2.73133 3.00373L1.7456 3.50735C0.925663 3.92625 0.531225 4.87852 0.814794 5.7545L1.15571 6.80762C1.19621 6.93275 1.19621 7.06749 1.15571 7.19262L0.814794 8.24575C0.531225 9.12175 0.925663 10.074 1.7456 10.4929L2.73133 10.9965C2.84846 11.0564 2.94371 11.1516 3.00355 11.2687L3.50716 12.2545C3.92607 13.0744 4.87834 13.4689 5.75431 13.1853L6.80744 12.8444C6.93256 12.8039 7.06731 12.8039 7.19244 12.8444L8.24556 13.1853C9.12156 13.4689 10.0738 13.0744 10.4928 12.2545L10.9963 11.2687C11.0562 11.1516 11.1514 11.0564 11.2686 10.9965L12.2543 10.4929C13.0743 10.074 13.4687 9.12175 13.1851 8.24575L12.8442 7.19262C12.8037 7.06749 12.8037 6.93275 12.8442 6.80762L13.1851 5.7545C13.4687 4.87852 13.0743 3.92625 12.2543 3.50735L11.2686 3.00373C11.1514 2.9439 11.0562 2.84864 10.9963 2.73151L10.4928 1.74578C10.0738 0.925846 9.12156 0.531408 8.24556 0.814977L7.19244 1.15589C7.06731 1.19639 6.93256 1.1964 6.80744 1.15589L5.75431 0.814977ZM3.72479 6.84843L4.60868 5.9645L6.37644 7.73231L9.912 4.19678L10.7959 5.08066L6.37644 9.50006L3.72479 6.84843Z" fill="#47C2FF"/>
</svg>
