<svg width="24" height="24" viewBox="0 0 24 24" fill="none" xmlns="http://www.w3.org/2000/svg">
<path d="M7.2752 3.45001C7.7775 3.45001 8.27489 3.54895 8.73896 3.74117C9.20303 3.9334 9.6247 4.21514 9.97988 4.57033C10.3351 4.92551 10.6168 5.34718 10.809 5.81125C11.0013 6.27532 11.1002 6.77271 11.1002 7.27501V11.1H7.2752C6.26074 11.1 5.28784 10.697 4.57051 9.9797C3.85319 9.26237 3.4502 8.28947 3.4502 7.27501C3.4502 6.26056 3.85319 5.28766 4.57051 4.57033C5.28784 3.853 6.26074 3.45001 7.2752 3.45001ZM9.3002 9.30001V7.27501C9.3002 6.87451 9.18143 6.48299 8.95892 6.14998C8.73641 5.81697 8.42015 5.55742 8.05013 5.40416C7.68011 5.25089 7.27295 5.21079 6.88014 5.28892C6.48733 5.36706 6.12651 5.55992 5.84331 5.84312C5.5601 6.12632 5.36724 6.48714 5.28911 6.87995C5.21097 7.27277 5.25107 7.67993 5.40434 8.04995C5.55761 8.41997 5.81716 8.73623 6.15017 8.95874C6.48318 9.18125 6.87469 9.30001 7.2752 9.30001H9.3002ZM7.2752 12.9H11.1002V16.725C11.1002 17.4815 10.8759 18.2211 10.4556 18.8501C10.0353 19.4791 9.43789 19.9693 8.73896 20.2589C8.04003 20.5484 7.27095 20.6241 6.52898 20.4765C5.787 20.3289 5.10545 19.9646 4.57051 19.4297C4.03558 18.8948 3.67128 18.2132 3.52369 17.4712C3.3761 16.7293 3.45185 15.9602 3.74136 15.2612C4.03086 14.5623 4.52112 13.9649 5.15014 13.5446C5.77916 13.1243 6.51868 12.9 7.2752 12.9ZM7.2752 14.7C6.87469 14.7 6.48318 14.8188 6.15017 15.0413C5.81716 15.2638 5.55761 15.5801 5.40434 15.9501C5.25107 16.3201 5.21097 16.7273 5.28911 17.1201C5.36724 17.5129 5.5601 17.8737 5.84331 18.1569C6.12651 18.4401 6.48733 18.633 6.88014 18.7111C7.27295 18.7892 7.68011 18.7491 8.05013 18.5959C8.42015 18.4426 8.73641 18.1831 8.95892 17.85C9.18143 17.517 9.3002 17.1255 9.3002 16.725V14.7H7.2752ZM16.7252 3.45001C17.7397 3.45001 18.7126 3.853 19.4299 4.57033C20.1472 5.28766 20.5502 6.26056 20.5502 7.27501C20.5502 8.28947 20.1472 9.26237 19.4299 9.9797C18.7126 10.697 17.7397 11.1 16.7252 11.1H12.9002V7.27501C12.9002 6.26056 13.3032 5.28766 14.0205 4.57033C14.7378 3.853 15.7107 3.45001 16.7252 3.45001ZM16.7252 9.30001C17.1257 9.30001 17.5172 9.18125 17.8502 8.95874C18.1832 8.73623 18.4428 8.41997 18.5961 8.04995C18.7493 7.67993 18.7894 7.27277 18.7113 6.87995C18.6332 6.48714 18.4403 6.12632 18.1571 5.84312C17.8739 5.55992 17.5131 5.36706 17.1203 5.28892C16.7274 5.21079 16.3203 5.25089 15.9503 5.40416C15.5802 5.55742 15.264 5.81697 15.0415 6.14998C14.819 6.48299 14.7002 6.87451 14.7002 7.27501V9.30001H16.7252ZM12.9002 12.9H16.7252C17.4817 12.9 18.2212 13.1243 18.8503 13.5446C19.4793 13.9649 19.9695 14.5623 20.259 15.2612C20.5485 15.9602 20.6243 16.7293 20.4767 17.4712C20.3291 18.2132 19.9648 18.8948 19.4299 19.4297C18.8949 19.9646 18.2134 20.3289 17.4714 20.4765C16.7294 20.6241 15.9604 20.5484 15.2614 20.2589C14.5625 19.9693 13.9651 19.4791 13.5448 18.8501C13.1245 18.2211 12.9002 17.4815 12.9002 16.725V12.9ZM14.7002 14.7V16.725C14.7002 17.1255 14.819 17.517 15.0415 17.85C15.264 18.1831 15.5802 18.4426 15.9503 18.5959C16.3203 18.7491 16.7274 18.7892 17.1203 18.7111C17.5131 18.633 17.8739 18.4401 18.1571 18.1569C18.4403 17.8737 18.6332 17.5129 18.7113 17.1201C18.7894 16.7273 18.7493 16.3201 18.5961 15.9501C18.4428 15.5801 18.1832 15.2638 17.8502 15.0413C17.5172 14.8188 17.1257 14.7 16.7252 14.7H14.7002Z" fill="#5C5C5C"/>
</svg>
