<svg width="24" height="24" viewBox="0 0 24 24" fill="none" xmlns="http://www.w3.org/2000/svg">
<path d="M17.7273 15.1824L16.4547 13.908L17.7273 12.6354C18.1482 12.2182 18.4825 11.722 18.7111 11.1752C18.9397 10.6285 19.058 10.042 19.0593 9.44937C19.0606 8.85676 18.9448 8.26974 18.7187 7.72199C18.4925 7.17425 18.1603 6.67657 17.7413 6.25754C17.3223 5.8385 16.8246 5.50636 16.2769 5.28018C15.7291 5.05399 15.1421 4.93823 14.5495 4.93953C13.9569 4.94082 13.3704 5.05916 12.8236 5.28774C12.2769 5.51631 11.7806 5.85063 11.3634 6.2715L10.0908 7.545L8.81734 6.2724L10.0917 4.9998C11.2733 3.81826 12.8758 3.15448 14.5467 3.15448C16.2177 3.15448 17.8202 3.81826 19.0017 4.9998C20.1833 6.18134 20.8471 7.78385 20.8471 9.4548C20.8471 11.1258 20.1833 12.7283 19.0017 13.9098L17.7282 15.1824H17.7273ZM15.1821 17.7276L13.9086 19.0002C12.7271 20.1817 11.1246 20.8455 9.45364 20.8455C7.78269 20.8455 6.18018 20.1817 4.99864 19.0002C3.8171 17.8187 3.15332 16.2162 3.15332 14.5452C3.15332 12.8743 3.8171 11.2717 4.99864 10.0902L6.27214 8.8176L7.54474 10.092L6.27214 11.3646C5.85127 11.7818 5.51696 12.278 5.28838 12.8248C5.0598 13.3715 4.94146 13.958 4.94017 14.5506C4.93887 15.1432 5.05463 15.7303 5.28082 16.278C5.507 16.8258 5.83914 17.3234 6.25818 17.7425C6.67721 18.1615 7.17489 18.4936 7.72263 18.7198C8.27038 18.946 8.8574 19.0618 9.45001 19.0605C10.0426 19.0592 10.6291 18.9408 11.1759 18.7123C11.7226 18.4837 12.2188 18.1494 12.636 17.7285L13.9086 16.4559L15.1821 17.7285V17.7276ZM14.5449 8.1813L15.8184 9.4548L9.45454 15.8178L8.18104 14.5452L14.5449 8.1822V8.1813Z" fill="#5C5C5C"/>
</svg>
