<svg width="16" height="16" viewBox="0 0 16 16" fill="none" xmlns="http://www.w3.org/2000/svg">
<path d="M11.8186 10.1216L10.9702 9.27198L11.8186 8.42358C12.0991 8.14545 12.322 7.81464 12.4744 7.45014C12.6268 7.08564 12.7057 6.69463 12.7065 6.29956C12.7074 5.90449 12.6302 5.51314 12.4794 5.14798C12.3287 4.78281 12.1072 4.45103 11.8279 4.17167C11.5485 3.89231 11.2167 3.67088 10.8516 3.5201C10.4864 3.36931 10.095 3.29213 9.69998 3.293C9.3049 3.29386 8.9139 3.37275 8.5494 3.52514C8.1849 3.67752 7.85408 3.9004 7.57595 4.18098L6.72755 5.02998L5.87855 4.18158L6.72815 3.33318C7.51585 2.54549 8.58419 2.10297 9.69815 2.10297C10.8121 2.10297 11.8805 2.54549 12.6682 3.33318C13.4558 4.12087 13.8984 5.18921 13.8984 6.30318C13.8984 7.41715 13.4558 8.48549 12.6682 9.27318L11.8192 10.1216H11.8186ZM10.1218 11.8184L9.27275 12.6668C8.48506 13.4545 7.41672 13.897 6.30275 13.897C5.18879 13.897 4.12045 13.4545 3.33275 12.6668C2.54506 11.8791 2.10254 10.8107 2.10254 9.69678C2.10254 8.58281 2.54506 7.51447 3.33275 6.72678L4.18175 5.87838L5.03015 6.72798L4.18175 7.57638C3.90118 7.85451 3.6783 8.18532 3.52591 8.54982C3.37353 8.91432 3.29464 9.30533 3.29377 9.7004C3.29291 10.0955 3.37008 10.4868 3.52087 10.852C3.67166 11.2171 3.89309 11.5489 4.17244 11.8283C4.4518 12.1076 4.78358 12.3291 5.14875 12.4799C5.51391 12.6307 5.90526 12.7078 6.30033 12.707C6.6954 12.7061 7.08641 12.6272 7.45091 12.4748C7.81541 12.3224 8.14622 12.0996 8.42435 11.819L9.27275 10.9706L10.1218 11.819V11.8184ZM9.69695 5.45418L10.546 6.30318L6.30335 10.5452L5.45435 9.69678L9.69695 5.45478V5.45418Z" fill="#FA7319"/>
</svg>
