<svg width="28" height="28" viewBox="0 0 28 28" fill="none" xmlns="http://www.w3.org/2000/svg">
<g filter="url(#filter0_d_17_29276)">
<path d="M2 7C2 3.68629 4.68629 1 8 1H20C23.3137 1 26 3.68629 26 7V19C26 22.3137 23.3137 25 20 25H8C4.68629 25 2 22.3137 2 19V7Z" fill="white"/>
<path d="M8 1.5H20C23.0376 1.5 25.5 3.96243 25.5 7V19C25.5 22.0376 23.0376 24.5 20 24.5H8C4.96243 24.5 2.5 22.0376 2.5 19V7C2.5 3.96243 4.96243 1.5 8 1.5Z" stroke="#EBEBEB"/>
<path d="M18.3105 10.9466L14 6.63611L9.68956 10.9466L10.6716 11.9287L14 8.60029L17.3284 11.9287L18.3105 10.9466ZM9.68945 15.0538L14 19.3643L18.3104 15.0538L17.3284 14.0717L14 17.4001L10.6715 14.0717L9.68945 15.0538Z" fill="#5C5C5C"/>
</g>
<defs>
<filter id="filter0_d_17_29276" x="0" y="0" width="28" height="28" filterUnits="userSpaceOnUse" color-interpolation-filters="sRGB">
<feFlood flood-opacity="0" result="BackgroundImageFix"/>
<feColorMatrix in="SourceAlpha" type="matrix" values="0 0 0 0 0 0 0 0 0 0 0 0 0 0 0 0 0 0 127 0" result="hardAlpha"/>
<feOffset dy="1"/>
<feGaussianBlur stdDeviation="1"/>
<feComposite in2="hardAlpha" operator="out"/>
<feColorMatrix type="matrix" values="0 0 0 0 0.0392157 0 0 0 0 0.0509804 0 0 0 0 0.0784314 0 0 0 0.03 0"/>
<feBlend mode="normal" in2="BackgroundImageFix" result="effect1_dropShadow_17_29276"/>
<feBlend mode="normal" in="SourceGraphic" in2="effect1_dropShadow_17_29276" result="shape"/>
</filter>
</defs>
</svg>
