<svg width="40" height="40" viewBox="0 0 40 40" fill="none" xmlns="http://www.w3.org/2000/svg">
<path d="M0 20C0 8.95431 8.95431 0 20 0C31.0457 0 40 8.95431 40 20C40 31.0457 31.0457 40 20 40C8.95431 40 0 31.0457 0 20Z" fill="#E0FAEC"/>
<path d="M20 27.5C15.8578 27.5 12.5 24.1423 12.5 20C12.5 15.8578 15.8578 12.5 20 12.5C24.1423 12.5 27.5 15.8578 27.5 20C27.5 24.1423 24.1423 27.5 20 27.5ZM19.2523 23L24.5548 17.6967L23.4943 16.6363L19.2523 20.879L17.1305 18.7573L16.07 19.8177L19.2523 23Z" fill="#1FC16B"/>
</svg>
